<?xml version="1.0" encoding="utf-8"?>
<!-- Generator: Adobe Illustrator 16.0.0, SVG Export Plug-In . SVG Version: 6.00 Build 0)  -->
<!DOCTYPE svg PUBLIC "-//W3C//DTD SVG 1.1//EN" "http://www.w3.org/Graphics/SVG/1.1/DTD/svg11.dtd">
<svg version="1.1" id="Layer_1" xmlns="http://www.w3.org/2000/svg" xmlns:xlink="http://www.w3.org/1999/xlink" x="0px" y="0px"
	 width="612px" height="209px" viewBox="0 0 612 209" enable-background="new 0 0 612 209" xml:space="preserve">
<rect width="612" height="209"/>
<g>
	<path fill="#660000" d="M99.932,95.279c-4.561,0-8.425-0.888-11.592-2.662c-3.168-1.772-5.464-4.243-6.889-7.412
		c-1.425-3.167-1.791-6.777-1.093-10.832l1.996-12.351c1.14-6.651,3.991-11.797,8.552-15.44c4.561-3.642,10.452-5.463,17.673-5.463
		c4.497,0,8.346,0.745,11.545,2.232c3.197,1.49,5.558,3.563,7.078,6.223c1.521,2.662,1.996,5.766,1.426,9.313
		c-0.634,4.181-2.392,7.427-5.274,9.739c-2.883,2.313-6.572,3.468-11.069,3.468H94.421l-0.475,2.279
		c-0.634,3.295-0.271,5.702,1.092,7.222c1.362,1.52,3.594,2.28,6.699,2.28c2.027,0,3.849-0.315,5.464-0.95
		c1.615-0.633,2.675-1.583,3.183-2.851h13.967c-1.774,4.815-4.798,8.552-9.074,11.212C111.001,93.948,105.885,95.279,99.932,95.279z
		 M95.751,63.257l14.538-0.189c1.076,0,1.963-0.285,2.661-0.855c0.696-0.57,1.171-1.615,1.425-3.136
		c0.379-2.216-0.128-4.005-1.521-5.368c-1.394-1.362-3.39-2.044-5.986-2.044c-3.104,0-5.575,0.919-7.412,2.755
		c-1.838,1.839-3.009,4.372-3.516,7.603L95.751,63.257z"/>
	<path fill="#660000" d="M245.02,94.328l22.329-27.364l-12.828-24.895h15.488l4.846,10.452c0.38,0.824,0.727,1.742,1.045,2.755
		c0.316,1.014,0.538,1.838,0.665,2.471c0.316-0.633,0.775-1.457,1.377-2.471c0.602-1.013,1.219-1.932,1.854-2.755l8.076-10.452
		h16.248l-20.713,25.464l13.683,26.794h-15.488l-5.606-12.352c-0.379-0.887-0.76-1.821-1.14-2.803
		c-0.38-0.982-0.634-1.79-0.761-2.423c-0.317,0.633-0.745,1.458-1.282,2.469c-0.539,1.015-1.157,1.934-1.853,2.757l-9.691,12.352
		H245.02z"/>
	<path fill="#660000" d="M320.331,94.328V24.966h21.664c4.307,0,8.092,0.84,11.355,2.518c3.262,1.679,5.795,4.038,7.601,7.078
		c1.806,3.041,2.708,6.62,2.708,10.738c0,4.624-1.173,8.646-3.516,12.066c-2.343,3.42-5.48,5.829-9.406,7.221l13.873,29.741h-11.212
		l-12.923-28.505H330.5v28.505H320.331z M330.5,56.702h11.496c3.42,0,6.145-1.013,8.172-3.04c2.027-2.027,3.04-4.752,3.04-8.172
		c0-3.484-1.029-6.254-3.087-8.314c-2.06-2.058-4.767-3.088-8.125-3.088H330.5V56.702z"/>
	<path fill="#660000" d="M490.979,94.328v-9.312h18.148V51.38h-16.246v-9.311h26.51v42.947h16.818v9.312H490.979z M513.403,33.043
		c-2.217,0-3.99-0.585-5.32-1.758c-1.33-1.172-1.995-2.74-1.995-4.704c0-2.026,0.665-3.625,1.995-4.798
		c1.33-1.172,3.104-1.758,5.32-1.758s3.992,0.586,5.322,1.758c1.33,1.172,1.995,2.772,1.995,4.798c0,1.964-0.665,3.532-1.995,4.704
		C517.396,32.458,515.62,33.043,513.403,33.043z"/>
	<path fill="#660000" d="M140.693,188.07v-69.363h9.122l11.402,33.067l11.402-33.067h9.121v69.363h-6.081v-38.197
		c0-3.167,0.031-6.539,0.095-10.119c0.062-3.578,0.173-6.998,0.333-10.263c0.157-3.262,0.333-6.063,0.522-8.408l-12.447,36.106
		h-6.081l-12.353-35.727c0.316,3.422,0.57,7.65,0.76,12.685c0.19,5.037,0.285,10.278,0.285,15.726v38.197H140.693z"/>
	<path fill="#660000" d="M252.907,188.07l18.623-26.796l-17.483-25.464h7.412l11.687,17.863c0.38,0.571,0.774,1.221,1.188,1.949
		c0.411,0.728,0.744,1.314,0.998,1.758c0.252-0.443,0.585-1.03,0.998-1.758c0.411-0.728,0.808-1.377,1.188-1.949l11.688-17.863
		h7.316l-17.483,25.464l18.528,26.796h-7.316l-12.542-18.813c-0.444-0.632-0.888-1.345-1.331-2.138
		c-0.444-0.792-0.824-1.41-1.14-1.854c-0.254,0.443-0.618,1.062-1.093,1.854c-0.475,0.792-0.935,1.505-1.378,2.138l-12.542,18.813
		H252.907z"/>
	<path fill="#660000" d="M430.836,188.07l11.021-69.363h6.461l7.506,35.062l18.53-35.062h7.028l-11.021,69.363h-4.654l6.649-41.809
		c0.508-3.229,1.047-6.476,1.616-9.739c0.569-3.262,1.14-6.254,1.711-8.979c0.57-2.723,1.044-4.941,1.426-6.651l-19.004,36.296
		h-5.227l-7.697-36.106c-0.126,1.71-0.332,3.928-0.615,6.65c-0.286,2.725-0.635,5.688-1.047,8.885
		c-0.412,3.2-0.871,6.414-1.376,9.644l-6.653,41.809H430.836z"/>
</g>
<g>
	<path opacity="0.7" fill="#FFFFFF" d="M20.784,94.328l11.022-69.362H54.04c4.813,0,8.884,0.888,12.209,2.66
		c3.326,1.775,5.763,4.245,7.316,7.412c1.552,3.168,1.979,6.841,1.283,11.021c-0.697,4.625-2.375,8.663-5.036,12.116
		c-2.66,3.453-6.049,6.001-10.166,7.648l8.551,28.505H53.185l-7.031-26.225h-7.222l-4.181,26.225H20.784z M40.832,55.752h8.267
		c3.167,0,5.749-0.792,7.744-2.376c1.995-1.583,3.214-3.801,3.658-6.65c0.506-2.977,0.015-5.289-1.473-6.938
		c-1.489-1.646-3.817-2.471-6.983-2.471h-8.267L40.832,55.752z"/>
	<path opacity="0.7" fill="#FFFFFF" d="M192.192,94.328l2.09-12.922h18.053l4.181-26.51h-15.678l1.996-12.827h28.98l-6.176,39.336
		h15.203l-2.09,12.922H192.192z M225.542,33.803c-2.598,0-4.561-0.667-5.891-1.996c-1.331-1.33-1.838-3.136-1.521-5.416
		c0.38-2.281,1.457-4.086,3.231-5.417c1.773-1.33,3.958-1.995,6.556-1.995c2.597,0,4.561,0.665,5.891,1.995
		c1.33,1.33,1.805,3.135,1.425,5.417c-0.317,2.28-1.363,4.085-3.135,5.416C230.324,33.137,228.14,33.803,225.542,33.803z"/>
	<path opacity="0.7" fill="#FFFFFF" d="M397.769,95.279c-6.397,0-11.528-1.869-15.393-5.606c-3.863-3.737-5.797-8.837-5.797-15.299
		V62.023c0-6.462,1.934-11.56,5.797-15.297c3.864-3.737,8.995-5.606,15.393-5.606c4.308,0,8.045,0.84,11.213,2.517
		c3.167,1.679,5.621,4.039,7.363,7.079s2.614,6.589,2.614,10.643v9.407h-32.497v4.274c0,3.676,1.013,6.526,3.041,8.552
		c2.026,2.029,4.781,3.04,8.266,3.04c2.852,0,5.228-0.522,7.127-1.567c1.899-1.045,3.042-2.486,3.421-4.324h10.165
		c-0.695,4.435-2.931,7.967-6.696,10.595C408.015,93.964,403.342,95.279,397.769,95.279z M386.462,61.358v2.185h22.614v-2.28
		c0-3.864-0.981-6.842-2.945-8.933c-1.965-2.09-4.751-3.135-8.362-3.135c-3.61,0-6.397,1.062-8.361,3.183
		C387.443,54.502,386.462,57.494,386.462,61.358z"/>
	<path opacity="0.7" fill="#FFFFFF" d="M544.38,94.328l18.336-26.985l-17.197-25.273h11.782l9.217,14.443
		c0.44,0.759,0.887,1.567,1.33,2.423c0.443,0.854,0.791,1.567,1.044,2.137c0.19-0.57,0.492-1.282,0.904-2.137
		c0.41-0.856,0.869-1.664,1.377-2.423l9.121-14.443h11.878l-17.197,25.369l18.243,26.89h-11.784L571.268,78.65
		c-0.443-0.76-0.887-1.615-1.33-2.566c-0.443-0.95-0.793-1.71-1.046-2.28c-0.317,0.569-0.696,1.33-1.14,2.28
		c-0.443,0.951-0.917,1.806-1.425,2.566l-10.166,15.678H544.38z"/>
	<path opacity="0.7" fill="#FFFFFF" d="M104.302,189.02c-6.019,0-10.753-1.772-14.205-5.321c-3.454-3.546-5.179-8.361-5.179-14.442
		v-14.633c0-6.081,1.742-10.894,5.226-14.442c3.483-3.547,8.203-5.321,14.158-5.321c5.892,0,10.562,1.758,14.015,5.273
		c3.452,3.516,5.178,8.218,5.178,14.111v9.12h-32.4v6.272c0,4.244,1.155,7.617,3.468,10.119c2.312,2.503,5.559,3.753,9.739,3.753
		c3.357,0,6.176-0.744,8.457-2.233c2.28-1.487,3.642-3.563,4.085-6.223h6.272c-0.634,4.308-2.646,7.713-6.034,10.214
		C113.693,187.77,109.434,189.02,104.302,189.02z M91.095,158.234h26.225v-3.99c0-4.372-1.141-7.808-3.421-10.31
		c-2.28-2.501-5.479-3.753-9.597-3.753c-4.245,0-7.506,1.234-9.787,3.705s-3.42,5.924-3.42,10.358V158.234z"/>
	<path opacity="0.7" fill="#FFFFFF" d="M198.367,188.07v-5.702h18.909v-40.857h-16.723v-5.702h22.994v46.559h17.769v5.702H198.367z
		 M219.652,126.023c-1.838,0-3.295-0.49-4.371-1.472c-1.078-0.982-1.615-2.329-1.615-4.039s0.538-3.071,1.615-4.085
		c1.076-1.013,2.533-1.521,4.371-1.521c1.836,0,3.292,0.508,4.371,1.521c1.076,1.014,1.615,2.375,1.615,4.085
		s-0.539,3.057-1.615,4.039C222.944,125.534,221.488,126.023,219.652,126.023z"/>
	<path opacity="0.7" fill="#FFFFFF" d="M318.527,188.07l11.021-69.363h19.478c6.019,0,10.578,1.744,13.683,5.226
		c3.103,3.485,4.181,8.141,3.231,13.967c-0.825,5.006-2.915,9.187-6.271,12.542c-3.358,3.359-7.505,5.386-12.447,6.082
		l11.212,31.546h-4.941l-10.738-31.355h-14.537l-4.941,31.355H318.527z M328.883,152.439h14.728c4.623,0,8.534-1.346,11.734-4.039
		c3.198-2.691,5.146-6.254,5.844-10.689c0.696-4.496-0.129-8.06-2.472-10.688c-2.343-2.629-5.828-3.944-10.452-3.944h-14.728
		L328.883,152.439z"/>
	<path opacity="0.7" fill="#FFFFFF" d="M488.128,188.07l0.665-4.276h19.1l6.936-43.708h-16.723l0.665-4.276h21.474l-7.602,47.984
		h17.96l-0.665,4.276H488.128z M518.821,125.834c-1.649,0-2.899-0.476-3.756-1.425c-0.853-0.95-1.154-2.217-0.902-3.801
		c0.253-1.583,0.967-2.851,2.14-3.8c1.17-0.951,2.58-1.425,4.228-1.425c1.646,0,2.896,0.474,3.753,1.425
		c0.855,0.95,1.154,2.218,0.901,3.8c-0.252,1.584-0.966,2.851-2.137,3.801C521.875,125.358,520.466,125.834,518.821,125.834z"/>
</g>
<g opacity="0.3">
	<path fill="#8080FF" d="M132.522,94.328l11.022-69.362h17.008l2.28,29.645l11.782-29.645h17.958L181.55,94.328h-13.017
		l4.181-26.605c1.076-6.967,2.438-13.666,4.086-20.096c1.646-6.428,3.167-12.082,4.56-16.961l-14.157,34.207h-11.402l-3.231-33.352
		c-0.063,4.119-0.27,9.359-0.617,15.726c-0.349,6.366-1.093,13.193-2.233,20.476l-4.181,26.605H132.522z"/>
	<path fill="#8080FF" d="M432.261,94.328V24.966h14.063l8.266,29.93l8.552-29.93h14.156v69.362h-9.691V63.353
		c0-3.547,0.08-7.395,0.237-11.545c0.157-4.148,0.363-8.25,0.618-12.305c0.253-4.053,0.539-7.728,0.855-11.021l-10.451,35.347
		h-8.647l-10.07-34.492c0.569,4.499,1.01,9.661,1.33,15.488c0.314,5.829,0.474,12.004,0.474,18.528v30.975H432.261z"/>
	<path fill="#8080FF" d="M28.48,188.07v-69.363h20.239c6.143,0,11.053,1.775,14.728,5.321c3.673,3.548,5.511,8.266,5.511,14.158
		c0,4.94-1.33,9.074-3.991,12.399c-2.661,3.326-6.24,5.463-10.736,6.414l15.392,31.07h-7.221l-14.823-30.596H34.751v30.596H28.48z
		 M34.751,151.868h13.968c4.181,0,7.537-1.25,10.071-3.753c2.533-2.501,3.801-5.843,3.801-10.024s-1.268-7.507-3.801-9.978
		c-2.534-2.471-5.891-3.705-10.071-3.705H34.751V151.868z"/>
	<path fill="#8080FF" d="M393.493,189.02c-5.828,0-10.104-1.772-12.826-5.321c-2.724-3.546-3.645-8.107-2.758-13.683l2.567-16.152
		c0.948-6.017,3.31-10.69,7.078-14.015c3.768-3.326,8.629-4.989,14.586-4.989c3.799,0,6.951,0.76,9.454,2.281
		c2.5,1.52,4.307,3.548,5.415,6.08c1.108,2.535,1.41,5.321,0.902,8.361c-0.569,3.674-2.028,6.478-4.371,8.409
		c-2.344,1.933-5.48,2.898-9.405,2.898h-20.334l-1.14,7.125c-0.76,4.625-0.16,8.252,1.805,10.879
		c1.964,2.629,5.193,3.944,9.691,3.944c3.546,0,6.652-0.856,9.313-2.566s4.497-4.053,5.511-7.031h4.75
		c-1.456,4.371-3.959,7.761-7.506,10.167C402.677,187.817,398.434,189.02,393.493,189.02z M384.467,158.805h20.429
		c4.751,0,7.506-2.407,8.267-7.222c0.569-3.42-0.143-6.366-2.137-8.837c-1.998-2.469-5.179-3.705-9.55-3.705
		c-4.437,0-8.078,1.316-10.929,3.944c-2.851,2.629-4.624,6.255-5.32,10.879L384.467,158.805z"/>
	<path fill="#8080FF" d="M543.237,188.07l22.994-26.89l-13.586-25.371h5.32l9.691,19.004c0.316,0.508,0.618,1.078,0.901,1.71
		c0.286,0.634,0.555,1.172,0.81,1.615c0.314-0.442,0.728-0.998,1.234-1.663c0.506-0.665,0.951-1.219,1.33-1.663l15.488-19.004h5.797
		l-21.571,25.56l14.35,26.7h-5.228l-10.356-19.954c-0.252-0.57-0.585-1.203-0.997-1.901c-0.413-0.696-0.745-1.266-0.998-1.71
		c-0.316,0.445-0.76,1.014-1.33,1.71c-0.569,0.698-1.108,1.331-1.616,1.901l-16.531,19.954H543.237z"/>
</g>
<g>
</g>
<g>
</g>
<g>
</g>
<g>
</g>
<g>
</g>
<g>
</g>
<g>
</g>
<g>
</g>
<g>
</g>
<g>
</g>
<g>
</g>
<g>
</g>
<g>
</g>
<g>
</g>
<g>
</g>
</svg>
